<?xml version="1.0" standalone="no"?>
<!DOCTYPE svg PUBLIC "-//W3C//DTD SVG 20010904//EN"
 "http://www.w3.org/TR/2001/REC-SVG-20010904/DTD/svg10.dtd">
<svg version="1.0" xmlns="http://www.w3.org/2000/svg"
 width="500.000000pt" height="500.000000pt" viewBox="0 0 500.000000 500.000000"
 preserveAspectRatio="xMidYMid meet">

<g transform="translate(0.000000,500.000000) scale(0.100000,-0.100000)"
fill="#000000" stroke="none">
<path d="M2270 4064 c0 -7 141 -213 181 -265 27 -34 33 -37 97 -41 126 -9 148
-43 132 -208 -26 -267 -33 -332 -46 -439 -21 -168 -32 -235 -169 -1036 -20
-115 -45 -264 -56 -330 -69 -418 -84 -459 -172 -501 -29 -13 -68 -24 -89 -24
-34 0 -43 -7 -146 -127 l-110 -128 107 -6 c169 -10 1389 -10 1395 0 3 5 -40
65 -95 135 l-101 126 -65 0 c-109 0 -170 46 -181 136 -6 53 3 122 78 654 90
630 129 919 150 1100 10 91 28 245 40 344 12 104 27 193 37 213 21 44 80 84
135 91 38 4 49 12 91 63 101 123 186 237 180 243 -8 8 -1393 8 -1393 0z m1150
-63 c0 -16 -64 -21 -299 -21 -136 0 -230 -4 -222 -9 9 -6 9 -10 2 -12 -6 -2
-12 -16 -13 -31 -1 -16 -6 -28 -10 -28 -3 0 -10 -10 -14 -22 -4 -12 -17 -30
-30 -40 -12 -10 -26 -28 -30 -40 -4 -15 -8 -17 -14 -8 -6 9 -10 6 -15 -9 -4
-14 -12 -20 -21 -17 -11 4 -13 -1 -9 -22 l6 -27 -18 30 c-9 17 -16 34 -15 38
1 5 -2 6 -7 3 -5 -3 -22 1 -39 10 -17 8 -62 18 -100 21 l-69 6 -45 66 c-25 36
-53 78 -63 94 l-17 27 521 0 c291 0 521 -4 521 -9z m-290 -728 c0 -46 -33
-319 -65 -542 -19 -135 -37 -266 -41 -291 -7 -62 -69 -439 -94 -580 -21 -112
-30 -144 -30 -102 0 12 -4 22 -10 22 -5 0 -10 -5 -10 -11 0 -5 -4 -8 -9 -5 -9
6 -39 -202 -48 -336 -10 -143 29 -210 139 -243 29 -8 77 -15 107 -16 l56 -1
-40 -10 c-66 -16 -177 -5 -220 22 -47 29 -76 90 -76 162 -1 99 46 413 162
1078 112 649 156 870 170 870 5 0 9 -8 9 -17z m-445 -280 c-3 -38 -18 -149
-31 -248 -14 -99 -33 -247 -44 -330 -21 -162 -31 -224 -116 -745 -68 -417 -78
-444 -184 -499 -19 -10 -50 -21 -68 -24 -20 -4 -58 -28 -95 -61 -105 -91 -137
-77 -50 22 43 49 59 60 93 66 54 8 96 30 138 70 49 45 59 70 81 197 11 63 36
204 56 314 70 389 134 763 177 1033 42 267 57 338 43 205z"/>
<path d="M1923 3772 c-70 -43 -93 -62 -93 -78 0 -11 18 -65 40 -119 22 -54 40
-108 40 -119 0 -13 -30 -51 -79 -100 l-79 -78 -38 12 c-22 7 -79 30 -128 51
-49 22 -94 39 -100 39 -6 0 -37 -52 -69 -115 -47 -94 -55 -118 -46 -133 7 -9
45 -46 86 -82 41 -36 81 -70 88 -77 10 -9 8 -28 -11 -94 -13 -44 -24 -89 -24
-99 0 -27 -18 -36 -110 -49 -47 -7 -102 -17 -123 -22 l-38 -10 3 -132 3 -132
107 -35 c59 -19 111 -39 116 -45 5 -5 17 -52 27 -103 l18 -93 -24 -25 c-13
-14 -54 -49 -91 -76 -38 -28 -68 -54 -68 -58 0 -9 68 -161 92 -206 30 -55 35
-56 154 -33 l108 21 21 -29 c11 -15 41 -52 68 -81 26 -29 47 -60 47 -70 0 -9
-16 -53 -35 -97 -19 -44 -35 -85 -35 -90 0 -9 135 -104 199 -140 9 -5 37 16
86 65 l74 73 56 -21 c31 -12 62 -22 69 -22 7 0 21 44 34 113 l22 112 -26 20
c-212 158 -339 334 -410 570 -23 78 -27 113 -31 255 -6 197 12 302 74 446 113
260 352 494 615 599 36 15 69 32 71 39 3 7 8 43 12 81 l8 68 -139 -6 c-84 -3
-159 -12 -189 -21 -27 -9 -55 -16 -61 -16 -6 0 -46 45 -89 100 -44 57 -84 100
-94 99 -9 0 -58 -26 -108 -57z m44 -1926 c15 1 20 -3 15 -14 -3 -10 -1 -13 6
-8 6 3 13 2 17 -4 3 -6 -2 -13 -11 -17 -16 -6 -16 -7 2 -15 18 -8 18 -8 -1 -5
-11 1 -19 9 -18 18 2 8 -7 19 -20 24 -12 6 -23 19 -24 30 -2 15 -1 16 5 5 4
-8 17 -15 29 -14z m58 -94 c-3 -3 -11 0 -18 7 -9 10 -8 11 6 5 10 -3 15 -9 12
-12z"/>
</g>
</svg>
